<?xml version="1.0" encoding="utf-8"?>
<!-- Generator: Adobe Illustrator 23.0.2, SVG Export Plug-In . SVG Version: 6.00 Build 0)  -->
<svg version="1.1" id="Layer_1" xmlns="http://www.w3.org/2000/svg" xmlns:xlink="http://www.w3.org/1999/xlink" x="0px" y="0px"
	 viewBox="0 0 293.7 277.4" style="enable-background:new 0 0 293.7 277.4;" xml:space="preserve">
<style type="text/css">
	.st0{opacity:0.51;}
	.st1{fill:none;stroke:#034694;stroke-width:2.9161;stroke-miterlimit:10;}
	.st2{fill:#FFFFFF;}
	.st3{clip-path:url(#SVGID_2_);}
	.st4{fill:#4774B4;}
	.st5{fill:#2EABE0;}
	.st6{fill:#034694;}
	.st7{fill:#FFCB05;}
	.st8{clip-path:url(#SVGID_3_);}
	.st9{fill:#2DABE0;}
	.st10{fill:#4674B5;}
	.st11{filter:url(#Adobe_OpacityMaskFilter);}
	.st12{mask:url(#SVGID_4_);}
	.st13{filter:url(#Adobe_OpacityMaskFilter_1_);}
	.st14{filter:url(#Adobe_OpacityMaskFilter_2_);}
	.st15{filter:url(#Adobe_OpacityMaskFilter_3_);}
	.st16{filter:url(#Adobe_OpacityMaskFilter_4_);}
	.st17{filter:url(#Adobe_OpacityMaskFilter_5_);}
	.st18{filter:url(#Adobe_OpacityMaskFilter_6_);}
	.st19{filter:url(#Adobe_OpacityMaskFilter_7_);}
	.st20{filter:url(#Adobe_OpacityMaskFilter_8_);}
	.st21{filter:url(#Adobe_OpacityMaskFilter_9_);}
	.st22{filter:url(#Adobe_OpacityMaskFilter_10_);}
	.st23{filter:url(#Adobe_OpacityMaskFilter_11_);}
	.st24{filter:url(#Adobe_OpacityMaskFilter_12_);}
	.st25{filter:url(#Adobe_OpacityMaskFilter_13_);}
	.st26{filter:url(#Adobe_OpacityMaskFilter_14_);}
	.st27{fill:none;stroke:#2EABE0;stroke-width:3;stroke-miterlimit:10;}
</style>
<g>
	<path class="st4" d="M141,183.6c0.5-0.2,0.9-0.5,1.3-0.7c0.7-0.4,1.4-0.8,2-1.4c0.4-0.3,0.7-0.7,1-1.1c0.4-0.7,0.6-1.5,0.3-2.3
		c-0.1-0.4-0.4-0.8-0.8-1.1c-0.3-0.2-0.6-0.4-0.9-0.5c-0.5-0.2-1-0.3-1.5-0.3c-0.8,0-1.6,0-2.4,0c-0.6,0.1-1.2,0-1.8-0.2
		c-0.2-0.1-0.5-0.1-0.8-0.1c-0.4,0-0.8,0.3-0.9,0.6c-0.2,0.4-0.2,0.8-0.2,1.2c0,0.1,0,0.2,0,0.3c0,0.5,0,1-0.1,1.4
		c-0.2,0.6-0.3,1.2-0.5,1.9c-0.4,1.6-0.8,3.2-1.3,4.8c-0.3,1-0.5,2-0.8,3c-0.1,0.2-0.1,0.5-0.1,0.7c0,0.2,0,0.3,0.1,0.5
		c0.1,0.2,0.2,0.3,0.4,0.3c0.3,0.1,0.7,0,0.9-0.3c0.1-0.1,0.2-0.3,0.2-0.5c0.2-0.6,0.3-1.2,0.5-1.8c0.3-1,0.5-1.9,0.8-2.9
		c0-0.2,0.1-0.4,0.2-0.6c0,0,0.1-0.1,0.1,0c0,0,0,0,0,0c0.1,0.1,0.2,0.2,0.3,0.3c0.1,0.1,0.3,0.2,0.5,0.2c0.4-0.1,0.8-0.1,1.2-0.1
		c0.2,0,0.3,0,0.5,0.1c0.4,0.1,0.8,0.4,1.2,0.6c0.6,0.5,1.2,1.1,1.6,1.7c0.3,0.5,0.6,1,0.8,1.6c0.1,0.3,0.2,0.5,0.4,0.8
		c0.1,0.2,0.2,0.3,0.4,0.5c0.2,0.2,0.5,0.3,0.8,0.2c0.5-0.2,0.8-0.6,0.8-1.1c0-0.2-0.1-0.4-0.2-0.6c-0.5-1-1-1.9-1.6-2.7
		c-0.6-0.9-1.5-1.6-2.4-2c-0.1,0-0.1-0.1-0.2-0.1c-0.1-0.1-0.1-0.1,0-0.2c0,0,0,0,0,0C140.9,183.7,141,183.7,141,183.6z
		 M138.3,183.1c-0.4,0.2-0.7,0.3-1.1,0.5c0,0-0.1,0-0.1-0.1c0-0.1,0-0.1,0-0.2c0.1-0.2,0.1-0.4,0.2-0.6c0.3-1.1,0.6-2.2,0.9-3.2
		c0.1-0.3,0.2-0.5,0.2-0.8c0-0.1,0.1-0.2,0.2-0.2c0.3-0.1,0.7-0.2,1-0.3c0.5-0.1,1.1-0.1,1.6-0.1c0.4,0,0.9,0,1.3,0.1
		c0.2,0.1,0.5,0.1,0.7,0.2c0.1,0,0.2,0.1,0.3,0.2c0.3,0.2,0.4,0.5,0.2,0.8c0,0.2-0.1,0.3-0.2,0.4c-0.1,0.2-0.3,0.4-0.5,0.6
		c-0.3,0.3-0.6,0.5-0.9,0.7C140.9,181.9,139.7,182.6,138.3,183.1z"/>
	<path class="st4" d="M131.7,180.3c0-0.6,0-1.2-0.2-1.8c-0.1-0.3-0.2-0.6-0.3-0.8c-0.3-0.5-0.7-0.8-1.3-1c-0.5-0.2-1.1-0.2-1.6-0.1
		c-0.5,0.1-1,0.3-1.4,0.6c-0.6,0.4-1.2,0.8-1.7,1.4c-0.4,0.4-0.8,0.8-1.1,1.3c-0.5,0.6-1,1.3-1.5,2c-0.5,0.7-0.9,1.4-1.3,2.2
		c-0.5,0.8-0.9,1.7-1.3,2.7c-0.2,0.5-0.3,0.9-0.4,1.4c-0.1,0.4-0.1,0.9-0.1,1.3c0,0.2,0.1,0.4,0.1,0.6c0.1,0.2,0.2,0.4,0.4,0.6
		c0.1,0.1,0.2,0.1,0.3,0.1c0.1,0,0.3,0,0.4-0.1c0.4-0.2,0.6-0.5,0.7-0.9c0-0.3,0.1-0.6,0.1-0.9c0-0.4,0.1-0.8,0.2-1.1
		c0.1-0.3,0.2-0.6,0.3-0.8c0.2-0.5,0.4-1,0.7-1.5c0-0.1,0.2-0.1,0.3-0.1c0,0,0,0,0,0c0.2,0.1,0.5,0.2,0.7,0.2c0.3,0,0.7-0.1,1-0.2
		c0.7-0.2,1.4-0.3,2.2-0.5c0.7-0.2,1.4-0.3,2.1-0.4c0.1,0,0.2,0,0.2,0.1c0,0,0,0.1,0,0.1c0,0.2-0.1,0.4-0.1,0.6
		c-0.1,0.7-0.3,1.4-0.6,2.1c-0.2,0.4-0.4,0.8-0.5,1.2c-0.1,0.3-0.2,0.7-0.3,1c-0.1,0.3,0,0.6,0.2,0.9c0.1,0.1,0.2,0.2,0.4,0.2
		c0.5,0.1,0.9-0.1,1.1-0.5c0.1-0.2,0.2-0.3,0.2-0.5c0.1-0.2,0.1-0.4,0.2-0.5c0.5-1.1,0.9-2.3,1.1-3.5c0.3-1.1,0.5-2.2,0.7-3.4
		C131.6,181.6,131.7,180.9,131.7,180.3z M129.7,182l-0.1,0.3c0,0.1-0.1,0.1-0.2,0.2c-0.3,0.1-0.6,0.1-0.9,0.2
		c-0.9,0.2-1.7,0.3-2.6,0.4c-0.3,0-0.6,0-0.8,0.1h-1.1c-0.1,0-0.2-0.1-0.1-0.2c0-0.1,0.1-0.2,0.1-0.3c0.7-1,1.5-2,2.4-2.8
		c0.4-0.3,0.8-0.6,1.3-0.9c0.3-0.1,0.6-0.2,0.9-0.2c0.1,0,0.3,0,0.4,0.1c0.1,0,0.3,0.1,0.4,0.3c0.1,0.2,0.2,0.3,0.2,0.5
		c0.1,0.3,0.1,0.5,0.1,0.8C129.8,180.8,129.8,181.4,129.7,182L129.7,182z"/>
	<path class="st5" d="M188.6,180.3v0.5c0,0.6-0.2,1.2-0.5,1.7c-0.4,0.8-1.1,1.4-1.8,2c-0.7,0.5-1.4,1-2.2,1.4c-0.7,0.4-1.3,0.7-2,1
		c-0.5,0.3-1.1,0.6-1.6,0.9c-0.1,0.1-0.3,0.2-0.4,0.3c0,0,0,0.1,0,0.1c0,0,0,0.1,0.1,0.1c0.1,0,0.1,0,0.2,0h0.4c0.2,0,0.5,0,0.7,0
		c0.2,0,0.5,0,0.8,0c0.5,0,1,0,1.4,0.1c0.5,0.1,1.1,0.1,1.6,0.2c0.5,0.1,0.9,0.1,1.4,0.2c0.2,0,0.4,0.1,0.6,0.2
		c0.4,0.2,0.7,0.6,0.7,1.1c0,0.2-0.1,0.3-0.2,0.4c-0.3,0.2-0.6,0.4-1,0.4c-0.4,0-0.7-0.1-1.1-0.2c-0.6-0.1-1.2-0.2-1.8-0.3
		c-0.3,0-0.7-0.1-1-0.1c-0.7-0.1-1.4-0.1-2-0.1c-0.5,0-1-0.1-1.4-0.1c-0.6,0-1.1,0.1-1.7,0.3c-0.1,0-0.2,0.1-0.3,0.1
		c-0.2,0.1-0.4,0.1-0.5,0c-0.5-0.1-0.7-0.4-0.6-0.8c0.1-0.3,0.2-0.6,0.4-0.9c0.2-0.3,0.5-0.6,0.8-0.9c0.5-0.5,1-0.9,1.5-1.3
		c0.5-0.4,1.1-0.7,1.7-1.1c0.7-0.4,1.3-0.7,2-1.1c0.2-0.1,0.5-0.3,0.7-0.4c0.3-0.2,0.7-0.4,1-0.6c0.4-0.2,0.7-0.5,1.1-0.8
		c0.5-0.4,0.8-0.9,1.1-1.5c0-0.1,0.1-0.2,0.1-0.3c0-0.2,0-0.4,0-0.5c0-0.3-0.1-0.7-0.3-1c-0.1-0.2-0.2-0.3-0.4-0.5
		c-0.4-0.3-0.7-0.5-1.2-0.6c-0.7-0.1-1.4,0-2,0.1c-0.7,0.2-1.3,0.5-1.8,1.1c-0.2,0.2-0.3,0.3-0.5,0.5c-0.1,0.1-0.3,0.2-0.5,0.2
		c-0.1,0-0.2,0-0.3-0.1c-0.4-0.1-0.6-0.5-0.6-0.9c0,0,0,0,0-0.1c0.1-0.6,0.5-1,1-1.3c0.4-0.2,0.8-0.5,1.2-0.7
		c0.6-0.3,1.2-0.5,1.8-0.5c0.3,0,0.7-0.1,1-0.1c0.5,0,0.9,0,1.4,0.1c0.7,0.1,1.4,0.5,1.9,1c0.3,0.3,0.5,0.6,0.8,0.9
		c0.3,0.4,0.4,1,0.4,1.5C188.5,180,188.5,180.2,188.6,180.3L188.6,180.3z"/>
	<path class="st5" d="M195.2,190.7h-0.2c-0.9,0-1.7-0.2-2.5-0.5c-0.5-0.2-0.9-0.4-1.3-0.7c-0.4-0.3-0.7-0.6-1-1
		c-0.2-0.3-0.3-0.6-0.3-1c0-0.1,0-0.2,0.1-0.3c0.1-0.1,0.1-0.2,0.2-0.2c0.3-0.4,0.9-0.5,1.3-0.2c0,0,0.1,0.1,0.1,0.1
		c0.1,0.1,0.2,0.2,0.3,0.4c0.6,0.8,1.4,1.4,2.4,1.6c0.4,0.1,0.7,0.1,1.1,0.1c0.6,0,1.2-0.1,1.8-0.3c0.6-0.2,1.1-0.6,1.4-1.1
		c0.2-0.2,0.3-0.5,0.3-0.8c0-0.3,0-0.5,0-0.8c0-0.3-0.1-0.5-0.3-0.7c-0.2-0.2-0.5-0.4-0.8-0.5c-0.4-0.2-0.9-0.2-1.3-0.2
		c-0.3,0-0.6,0-0.9,0c-0.4,0-0.7-0.3-0.7-0.6c0-0.1,0-0.2,0-0.3c0-0.2,0.1-0.4,0.3-0.5c0.2-0.2,0.5-0.2,0.7-0.2c0.4,0,0.8,0,1.2,0
		c0.3,0,0.6,0,0.9-0.2c0.2-0.1,0.4-0.1,0.5-0.2c0.6-0.2,1.1-0.6,1.4-1.1c0.4-0.6,0.4-1.2,0.1-1.8c0-0.1-0.1-0.1-0.1-0.2
		c-0.3-0.3-0.6-0.6-1-0.8c-0.3-0.1-0.7-0.2-1-0.2h-0.6c-0.7,0-1.4,0.2-2,0.6c-0.1,0.1-0.3,0.2-0.4,0.3c-0.2,0.2-0.4,0.4-0.6,0.6
		c-0.1,0.1-0.2,0.2-0.2,0.2c-0.2,0.2-0.5,0.2-0.7,0.2c0,0,0,0-0.1,0c-0.6-0.1-0.8-0.6-0.6-1.1c0.1-0.2,0.2-0.4,0.3-0.6
		c0.3-0.3,0.6-0.6,0.9-0.8c0.4-0.3,0.9-0.5,1.4-0.7c0.1,0,0.1-0.1,0.2-0.1c0.5-0.1,0.9-0.2,1.4-0.3c0.7-0.1,1.4-0.1,2.1,0.1
		c0.6,0.1,1.1,0.4,1.7,0.7c0.5,0.3,0.9,0.7,1.1,1.2c0.2,0.3,0.3,0.7,0.3,1.1c0,0.3,0,0.6,0,0.9c0,0.3-0.1,0.6-0.3,0.9
		c-0.2,0.5-0.6,0.9-1.1,1.3c-0.3,0.2-0.7,0.4-1.1,0.6c-0.1,0-0.2,0.1-0.2,0.2c0,0,0,0.1,0,0.2c0,0,0.1,0.1,0.1,0.1
		c0.5,0.4,0.9,0.9,1.2,1.6c0.1,0.3,0.1,0.6,0.1,1c0,0.2,0,0.4,0,0.5c0,0.6-0.2,1.2-0.6,1.7c-0.6,0.9-1.5,1.5-2.4,1.9
		c-0.5,0.2-0.9,0.3-1.4,0.4c-0.3,0-0.5,0.1-0.8,0.1C195.4,190.7,195.3,190.7,195.2,190.7L195.2,190.7z"/>
	<path class="st4" d="M97.9,191.1c-0.6,0-1.1-0.1-1.7-0.3c-0.5-0.2-1-0.5-1.4-0.9c-0.3-0.4-0.5-0.9-0.4-1.4c0-0.2,0.2-0.3,0.3-0.2
		c0.2,0.1,0.4,0.1,0.6,0.2c0.4,0.2,0.8,0.3,1.1,0.5c0.4,0.1,0.8,0.2,1.2,0.2c0.7,0,1.3-0.1,2-0.4c1.1-0.5,1.9-1.2,2.6-2.1
		c0.2-0.2,0.3-0.5,0.5-0.7c0.2-0.3,0.3-0.5,0.4-0.8c0.2-0.3,0-0.7-0.3-0.9c-0.3-0.2-0.6-0.3-0.9-0.3c-0.4,0-0.8-0.1-1.2-0.1
		c-0.6,0-1.2,0-1.8,0c-0.4,0-0.9-0.1-1.2-0.3c-0.6-0.3-1.1-0.8-1.3-1.5c-0.1-0.3-0.1-0.6,0-0.9c0.1-0.4,0.2-0.8,0.4-1.1
		c0.3-0.5,0.6-0.9,1-1.3c0.6-0.6,1.2-1.1,1.9-1.6c0.6-0.5,1.3-0.9,2-1.2c0.9-0.5,1.9-0.7,2.9-0.6c0.4,0,0.7,0.1,1.1,0.3
		c0.6,0.3,0.9,1,0.7,1.6c0,0.1-0.1,0.2-0.1,0.3c-0.1,0.1-0.2,0.2-0.3,0.2c-0.2,0-0.3,0-0.5,0c-0.2,0-0.5-0.1-0.7-0.2
		c-0.4-0.2-0.9-0.2-1.4-0.1c-0.5,0.1-1,0.3-1.5,0.5c-0.7,0.4-1.4,0.8-2,1.4c-0.4,0.4-0.8,0.7-1.2,1.1c-0.2,0.2-0.3,0.5-0.4,0.8
		c-0.1,0.4,0.1,0.7,0.4,0.9c0.2,0.1,0.4,0.1,0.6,0.1h0.6c0.7,0,1.5,0,2.2,0c0.7,0,1.3,0.2,1.9,0.6c0.8,0.6,1.1,1.4,0.9,2.3
		c-0.1,0.5-0.2,1-0.5,1.5c-0.4,0.6-0.8,1.2-1.2,1.7c-0.6,0.8-1.4,1.4-2.2,1.9c-0.7,0.4-1.5,0.8-2.4,0.9
		C98.4,191.1,98.2,191.1,97.9,191.1z"/>
	<path class="st4" d="M119.1,175.9c0.6,0,1.1,0,1.7,0.1c0.2,0,0.5,0.1,0.7,0.2c0.2,0.1,0.3,0.2,0.4,0.4c0.1,0.3,0.1,0.6-0.1,0.8
		c-0.1,0.3-0.4,0.4-0.7,0.4c-0.2,0-0.4,0-0.6-0.1c-0.3-0.1-0.6-0.1-0.9-0.1c-0.5,0-1.1,0-1.6,0c-0.6,0-1.2,0.1-1.8,0.2l-0.2,0.1
		c-0.1,0-0.1,0.1-0.2,0.2c0,0.1,0,0.2,0,0.3c0,0.7-0.2,1.4-0.4,2.1c-0.4,1.4-0.8,2.7-1.2,4.1c-0.1,0.3-0.1,0.6-0.2,0.8
		c-0.2,0.7-0.4,1.4-0.5,2.1c-0.2,0.6-0.2,1.1-0.3,1.7c0,0,0,0.1,0,0.1c0,0.2-0.2,0.4-0.4,0.5c-0.1,0.1-0.3,0.1-0.5,0.1
		c-0.4,0-0.8-0.3-0.8-0.7c0-0.2,0-0.4,0-0.6l0.2-0.8c0.3-1.3,0.7-2.5,1-3.8c0.2-0.6,0.3-1.3,0.5-1.9c0.1-0.5,0.3-1,0.4-1.5
		c0.1-0.4,0.2-0.9,0.3-1.3c0.1-0.2,0.1-0.5,0-0.8c0-0.1-0.1-0.2-0.2-0.2c0,0,0,0,0,0c-0.3,0.1-0.5,0.1-0.8,0.2
		c-0.7,0.3-1.4,0.6-2,0.9c-0.3,0.2-0.6,0.3-0.9,0.5c-0.2,0.1-0.4,0.2-0.6,0.2c-0.4,0-0.8-0.3-0.8-0.7c-0.1-0.3,0-0.5,0.1-0.8
		c0-0.1,0.1-0.1,0.2-0.2c0.2-0.1,0.3-0.2,0.5-0.4c0.5-0.3,1.1-0.6,1.7-0.8c0.7-0.3,1.5-0.6,2.3-0.8c0.8-0.2,1.6-0.4,2.4-0.6
		c0.3,0,0.6-0.1,0.9-0.1C117.2,176,118.1,175.9,119.1,175.9z"/>
	<path class="st4" d="M159.2,175.9c0.6,0,1.2,0,1.7,0.1c0.2,0,0.4,0.1,0.6,0.2c0.3,0.1,0.5,0.4,0.5,0.8c0,0.2-0.1,0.3-0.1,0.5
		c-0.1,0.3-0.4,0.4-0.6,0.4c-0.2,0-0.4,0-0.5-0.1c-0.3-0.1-0.7-0.1-1-0.1h-1.2c-0.7,0-1.5,0.1-2.2,0.2l-0.3,0.1
		c-0.1,0-0.2,0.1-0.2,0.2c0,0.2-0.1,0.4-0.1,0.6c-0.1,0.7-0.2,1.4-0.4,2c-0.3,1-0.6,2-0.9,3.1c-0.3,1-0.5,2.1-0.8,3.1
		c-0.1,0.4-0.2,0.7-0.3,1.1c-0.1,0.4-0.2,0.8-0.2,1.2l-0.1,0.3c0,0.3-0.2,0.5-0.5,0.6c-0.1,0-0.1,0-0.2,0c-0.4,0.1-0.8-0.1-0.9-0.5
		c-0.1-0.2-0.2-0.4-0.1-0.7l0.1-0.3c0.2-1,0.5-2,0.8-2.9c0.2-0.7,0.4-1.4,0.6-2.1c0.3-1.2,0.7-2.3,0.9-3.6c0.1-0.4,0.1-0.8,0.2-1.1
		c0-0.1,0-0.2,0-0.2c0-0.1-0.1-0.2-0.2-0.2c0,0,0,0,0,0c-0.2,0.1-0.5,0.1-0.7,0.2c-0.7,0.3-1.4,0.6-2.1,1c-0.3,0.2-0.6,0.3-0.8,0.4
		c-0.2,0.1-0.5,0.2-0.7,0.2c-0.3,0-0.6-0.2-0.7-0.5c-0.1-0.3-0.1-0.7,0.1-1c0.1-0.1,0.1-0.2,0.2-0.2c0.2-0.1,0.4-0.3,0.6-0.4
		c1.1-0.5,2.2-1,3.3-1.4c0.5-0.2,0.9-0.3,1.4-0.4c0.7-0.2,1.4-0.3,2.1-0.4c0.5-0.1,1.1-0.1,1.6-0.2
		C158.4,175.9,158.8,175.9,159.2,175.9z"/>
	<path class="st5" d="M170.8,190.7h-0.3c-0.2,0-0.3-0.1-0.4-0.3c-0.1-0.1-0.2-0.3-0.2-0.5v-0.4c0-0.3,0.1-0.6,0.2-0.9
		c0.2-0.7,0.4-1.4,0.6-2.1c0.2-0.7,0.5-1.4,0.7-2.1c0.1-0.4,0.3-0.8,0.4-1.1c0.1-0.3,0.2-0.7,0.4-1c0.2-0.5,0.4-0.9,0.6-1.4
		c0.3-0.8,0.7-1.5,1.1-2.2c0,0,0-0.1,0-0.1c0,0-0.1,0-0.2-0.1c0,0,0,0-0.1,0c-0.2,0.1-0.3,0.1-0.5,0.2c-0.5,0.2-1.1,0.4-1.7,0.6
		l-0.4,0.1c-0.2,0-0.4,0-0.6-0.1c-0.2-0.1-0.2-0.3-0.3-0.4c-0.1-0.4,0.1-0.8,0.4-1c0.2-0.2,0.4-0.3,0.6-0.3c0.6-0.2,1.3-0.4,2-0.6
		c0.5-0.1,0.9-0.3,1.4-0.4c0.4-0.1,0.7-0.1,1.1-0.2c0.1,0,0.2,0,0.3,0c0.3,0.1,0.4,0.3,0.4,0.6c0,0.3-0.1,0.6-0.3,0.9
		c-0.2,0.2-0.3,0.5-0.4,0.8c-0.1,0.2-0.2,0.4-0.3,0.6c-0.2,0.5-0.5,0.9-0.6,1.4c-0.1,0.2-0.2,0.5-0.3,0.7c-0.5,1.2-1,2.5-1.4,3.8
		c-0.4,1.2-0.7,2.4-1,3.6c-0.1,0.3-0.1,0.7-0.2,1l-0.1,0.5c-0.1,0.2-0.2,0.3-0.3,0.4c-0.1,0-0.1,0.1-0.2,0.1
		C171,190.7,170.9,190.7,170.8,190.7L170.8,190.7z"/>
	<path class="st4" d="M131.3,199.7c-0.4-1.7-1.7-3.1-3.4-3.4c-1.4-0.4-2.9-0.3-4.2,0.3c-1.1,0.5-2.1,1.3-2.8,2.3
		c-0.6,0.8-0.9,1.8-1,2.8c0,0.3,0,0.7,0,1c0,0.8,0.3,1.7,0.7,2.4c0.4,0.7,1.1,1.3,1.9,1.7c0.8,0.4,1.7,0.6,2.6,0.5h0.1
		c1.6,0,3.2-0.6,4.3-1.8c0.2-0.2,0.3-0.3,0.4-0.5c0.5-0.6,0.9-1.3,1.2-2.1C131.5,202,131.5,200.9,131.3,199.7z M128.3,204.7
		c-0.6,0.6-1.3,1-2.1,1.1c-0.9,0.2-1.8,0.2-2.7-0.2c-1-0.4-1.7-1.3-2-2.3c-0.2-0.7-0.1-1.5,0.1-2.2c0.2-0.6,0.5-1.3,0.9-1.8
		c0.5-0.7,1.2-1.2,1.9-1.5c0.7-0.3,1.6-0.4,2.3-0.3c1.2,0.1,2.2,0.9,2.7,2c0.2,0.5,0.3,1,0.3,1.5
		C129.8,202.4,129.3,203.7,128.3,204.7L128.3,204.7z"/>
	<path class="st4" d="M110.5,207.4c-1,0-2-0.1-2.9-0.5c-0.4-0.1-0.8-0.3-1.1-0.6c-0.1-0.1-0.1-0.2-0.1-0.3c0.1-0.5,0.2-0.9,0.3-1.3
		c0-0.1,0.1-0.1,0.2-0.1c0,0,0,0,0,0c0.2,0.1,0.3,0.2,0.5,0.3c0.7,0.5,1.5,0.8,2.3,0.9c0.6,0.1,1.1,0.1,1.7,0.1c0.3,0,0.7-0.1,1-0.2
		c0.4-0.1,0.7-0.4,1-0.7c0.3-0.4,0.4-1,0.3-1.5c-0.1-0.3-0.3-0.5-0.6-0.6c-0.3-0.1-0.6-0.2-0.8-0.3c-0.5-0.1-1.1-0.2-1.7-0.2
		c-0.6-0.1-1.2-0.2-1.8-0.5c-0.7-0.3-1.1-1-1.1-1.7c-0.1-1,0.2-2,1-2.8c0.4-0.4,0.8-0.7,1.3-0.8c0.8-0.3,1.6-0.4,2.4-0.4
		c0.9,0,1.8,0.2,2.6,0.5c0.3,0.1,0.6,0.2,0.9,0.4c0.1,0,0.2,0.2,0.2,0.3c0,0.5-0.1,0.9-0.3,1.4c0,0.1-0.1,0.1-0.2,0.1c0,0,0,0-0.1,0
		c0,0,0,0-0.1,0c-0.7-0.7-1.6-0.9-2.6-1c-0.4,0-0.8,0-1.2,0c-0.6,0-1.2,0.3-1.7,0.7c-0.4,0.3-0.6,0.8-0.6,1.3c0,0.4,0.2,0.8,0.6,0.9
		c0.3,0.2,0.7,0.3,1.1,0.4c0.4,0.1,0.8,0.1,1.1,0.2c0.6,0,1.1,0.2,1.6,0.4c0.3,0.1,0.6,0.3,0.8,0.5c0.4,0.3,0.7,0.7,0.8,1.2
		c0.2,1.1,0,2-0.7,2.9c-0.3,0.4-0.7,0.7-1.1,0.9c-0.7,0.4-1.5,0.5-2.3,0.6C110.9,207.4,110.7,207.4,110.5,207.4z"/>
	<path class="st4" d="M203.2,206.8c-0.2-0.6-0.3-1.1-0.4-1.7c-0.3-1.1-0.6-2.1-0.8-3.2c-0.4-1.5-0.8-3-1.1-4.4
		c-0.1-0.4-0.2-0.7-0.3-1.1c0-0.1-0.1-0.2-0.2-0.2h-1.2c-0.1,0-0.2,0.1-0.3,0.2c0,0-0.1,0.1-0.1,0.1c-0.5,0.8-1,1.6-1.6,2.4
		c-1,1.5-1.9,3-2.9,4.4c-0.7,1.1-1.4,2.2-2.1,3.2c-0.1,0.1-0.1,0.2-0.2,0.3l-0.1,0.1c0,0.1,0,0.1,0.1,0.2c0.3,0.1,0.7,0,1,0
		c0.5,0,0.5,0,0.8-0.5s0.6-0.9,0.9-1.4s0.3-0.5,0.8-0.5h5c0.1,0,0.2,0,0.3,0c0.1,0,0.2,0.1,0.2,0.2c0.1,0.2,0.2,0.5,0.2,0.7
		c0.1,0.4,0.2,0.8,0.3,1.2c0,0.1,0.1,0.2,0.3,0.2h0.6v0h0.6c0.1,0,0.2-0.1,0.2-0.2C203.2,207,203.2,206.9,203.2,206.8z M200.4,203.5
		c-0.5,0-1.1,0-1.6,0h-2.4c-0.1,0-0.1,0-0.2,0c-0.1,0-0.1-0.1-0.1-0.1c0,0,0,0,0,0c0.2-0.4,0.5-0.7,0.7-1.1l1.7-2.7
		c0.2-0.4,0.5-0.8,0.8-1.2c0,0,0.1,0,0.1-0.1c0,0,0.1,0,0.1,0.1c0,0.1,0,0.1,0.1,0.2c0.2,0.7,0.3,1.4,0.5,2.1l0.6,2.3
		c0,0.1,0.1,0.2,0.1,0.3C200.7,203.4,200.6,203.5,200.4,203.5z"/>
	<path class="st4" d="M167.4,207c0-0.1,0-0.2-0.1-0.2l-0.5-1.7c-0.2-0.7-0.4-1.4-0.5-2.1c-0.2-0.6-0.3-1.3-0.5-1.9l-1-3.9
		c-0.2-0.9-0.1-0.8-1-0.8h-0.5c-0.2,0-0.3,0.1-0.4,0.2c-0.1,0.1-0.1,0.2-0.2,0.3c-0.4,0.7-0.9,1.3-1.3,2c-0.8,1.2-1.6,2.4-2.3,3.6
		c-0.8,1.3-1.7,2.6-2.5,3.8c-0.2,0.2-0.3,0.5-0.5,0.8c0,0.1,0,0.1,0.1,0.2c0,0,0,0,0,0c0.4,0,0.9,0,1.3,0c0.2,0,0.3-0.1,0.4-0.2
		c0.3-0.4,0.5-0.8,0.8-1.2c0.2-0.2,0.3-0.4,0.4-0.6c0.1-0.1,0.2-0.2,0.3-0.2h5.5c0,0,0.1,0,0.1,0c0.1,0,0.2,0.1,0.2,0.2
		c0.1,0.4,0.2,0.9,0.3,1.3c0.2,0.8,0.1,0.7,1.1,0.8h0.2c0.1,0,0.2,0,0.3,0S167.4,207.1,167.4,207z M164.8,203.5c-0.1,0-0.2,0-0.3,0
		h-3.9c-0.1,0-0.2,0-0.2,0c0,0-0.1-0.1-0.1-0.1c0-0.1,0-0.2,0.1-0.3c0.5-0.8,1.1-1.7,1.6-2.5c0.4-0.7,0.8-1.4,1.3-2
		c0.1-0.1,0.1-0.2,0.2-0.3c0,0,0.1,0,0.2,0c0,0.1,0.1,0.2,0.1,0.2l1.1,4.6c0,0.1,0,0.1,0,0.2C164.9,203.4,164.8,203.5,164.8,203.5
		L164.8,203.5z"/>
	<path class="st4" d="M101.6,206.1c-0.5-1.8-0.9-3.6-1.4-5.4c-0.3-1.1-0.6-2.2-0.9-3.3c-0.1-0.3-0.2-0.6-0.2-0.9
		c0-0.1-0.1-0.2-0.3-0.2h-0.6c-0.8,0-0.7-0.1-1.1,0.6c-1.3,2-2.6,4-3.9,6c-0.8,1.2-1.5,2.3-2.3,3.5c-0.1,0.2-0.2,0.4-0.4,0.5
		l-0.1,0.1c0,0,0,0.2,0.1,0.2l0.7,0.1v0c0.2,0,0.4,0,0.5,0c0.2,0,0.4-0.1,0.5-0.3c0.3-0.5,0.6-1,0.9-1.5c0.3-0.5,0.4-0.5,0.9-0.5h5
		c0.1,0,0.2,0,0.3,0c0.1,0,0.2,0.1,0.2,0.2c0.1,0.2,0.1,0.4,0.2,0.6c0.1,0.4,0.2,0.8,0.3,1.3c0,0.1,0.1,0.2,0.3,0.2h1.2
		c0.1,0,0.2-0.1,0.2-0.2c0,0,0,0,0,0C101.7,206.7,101.7,206.4,101.6,206.1z M99,203.5c-0.2,0-0.3,0-0.5,0h-3.5c-0.1,0-0.2,0-0.3,0
		c-0.1,0-0.1-0.1-0.1-0.2c0-0.1,0.1-0.2,0.1-0.2l0.7-1.1c0.7-1.1,1.4-2.3,2.2-3.4c0-0.1,0.1-0.1,0.2-0.2c0.1-0.1,0.1-0.1,0.2-0.1
		c0,0,0.1,0.1,0.1,0.1c0,0.1,0.1,0.2,0.1,0.3c0.2,0.9,0.4,1.7,0.7,2.6c0.2,0.6,0.3,1.2,0.4,1.7c0,0.1,0,0.2,0,0.3
		C99.2,203.5,99.1,203.5,99,203.5z"/>
	<path class="st4" d="M141.1,207.4c-0.8,0-1.5-0.1-2.3-0.4c-0.5-0.2-1.1-0.5-1.5-0.9c-0.5-0.4-0.8-0.9-1.1-1.4c-0.4-1-0.6-2-0.4-3.1
		c0.1-0.9,0.4-1.8,0.9-2.5c0.3-0.4,0.6-0.8,0.9-1.1c0.8-0.8,1.8-1.3,2.9-1.6c1.4-0.3,2.9-0.3,4.2,0.2c0.4,0.1,0.8,0.3,1.1,0.5
		c0.1,0.1,0.2,0.2,0.2,0.3c-0.1,0.5-0.2,0.9-0.3,1.4c0,0-0.1,0-0.1,0s-0.1,0-0.1-0.1c-0.7-0.7-1.6-1-2.5-1.1
		c-0.8-0.1-1.7-0.1-2.5,0.2c-0.9,0.3-1.7,0.9-2.3,1.7c-0.2,0.3-0.4,0.7-0.6,1.1c-0.3,0.7-0.4,1.5-0.3,2.3c0.1,1.2,0.8,2.2,1.9,2.7
		c0.4,0.2,0.8,0.3,1.3,0.4c0.7,0.1,1.4,0,2.1-0.2c0.4-0.1,0.8-0.3,1.1-0.6c0.2-0.2,0.4-0.3,0.6-0.5h0.1c0,0,0.1,0.1,0.1,0.1
		c0,0.2-0.1,0.5-0.1,0.7c0,0.2-0.1,0.5-0.1,0.7c0,0.2-0.2,0.4-0.4,0.5c-0.7,0.4-1.5,0.6-2.3,0.7
		C141.6,207.4,141.4,207.4,141.1,207.4z"/>
	<path class="st4" d="M178.1,196.3h3.9c0.1,0,0.3,0,0.4,0c0,0,0.1,0.1,0.1,0.1c0,0,0,0,0,0.1c-0.1,0.3-0.1,0.7-0.2,1
		c0,0.1-0.1,0.2-0.3,0.2h-3.1c-0.1,0-0.3,0.1-0.3,0.2c-0.1,0.3-0.2,0.6-0.2,0.9c-0.2,1.2-0.5,2.4-0.7,3.7c-0.2,0.8-0.3,1.7-0.5,2.5
		l-0.3,1.5c0,0.2-0.1,0.3-0.1,0.5c0,0.1-0.1,0.1-0.2,0.2c0,0,0,0-0.1,0h-1.1c-0.1,0-0.2-0.1-0.2-0.2c0,0,0-0.1,0-0.1
		c0.3-1.3,0.5-2.6,0.8-3.9c0.2-0.8,0.3-1.6,0.5-2.4c0.2-0.8,0.3-1.5,0.5-2.3c0-0.1,0-0.2,0.1-0.3c0-0.2-0.1-0.3-0.2-0.3
		s-0.3,0-0.5,0h-2.5c-0.1,0-0.2-0.1-0.3-0.2c0,0,0-0.1,0-0.1c0.1-0.3,0.1-0.6,0.2-1c0-0.1,0.1-0.1,0.2-0.2c0.2,0,0.3,0,0.5,0
		L178.1,196.3z"/>
	<path class="st4" d="M188.2,196.3c0.2,0,0.4,0,0.6,0c0.1,0,0.2,0.1,0.2,0.2c0,0.1,0,0.2,0,0.3c-0.2,1.2-0.5,2.4-0.7,3.7
		c-0.2,1-0.4,1.9-0.6,2.9c-0.1,0.7-0.2,1.3-0.4,2c-0.1,0.5-0.2,1.1-0.3,1.7c0,0.2-0.2,0.3-0.3,0.3h-1.1c-0.2,0-0.2-0.1-0.2-0.3
		c0-0.2,0.1-0.3,0.1-0.5c0.2-0.8,0.3-1.5,0.5-2.3c0.2-0.9,0.3-1.8,0.5-2.7c0.2-1.2,0.5-2.4,0.7-3.6c0.1-0.4,0.2-0.8,0.2-1.2
		c0.1-0.4,0.1-0.4,0.5-0.4C187.9,196.3,188.1,196.3,188.2,196.3L188.2,196.3z"/>
	<path class="st4" d="M152.6,196.3h0.6c0.1,0,0.2,0.1,0.2,0.2c0,0,0,0,0,0c0,0.2,0,0.3-0.1,0.5c-0.3,1.6-0.6,3.2-0.9,4.8
		c-0.1,0.4-0.1,0.7-0.2,1.1c-0.3,1.4-0.5,2.7-0.8,4.1c0,0,0,0.1,0,0.1c0,0.1-0.1,0.2-0.3,0.2c-0.1,0-0.3,0-0.4,0h-0.7
		c-0.2,0-0.3-0.1-0.2-0.3c0.1-0.7,0.3-1.4,0.4-2.1c0.2-1.1,0.4-2.2,0.7-3.4c0.2-1.2,0.5-2.4,0.7-3.6c0.1-0.5,0.2-0.9,0.3-1.3
		c0-0.2,0.1-0.2,0.3-0.2C152.2,196.3,152.4,196.3,152.6,196.3L152.6,196.3z"/>
	<g>
		<path class="st4" d="M182,131.9v0.2h0v2.7c0,0.1,0,0.2,0,0.2c-0.1,0.8-0.1,2.3-0.5,3.9c0,0.1,0,0.1-0.1,0.2c0,0.1,0,0.1,0,0.2
			c-0.1,0.3-0.1,0.7-0.2,1c-0.1,0.3-0.1,0.5-0.2,0.8c-0.1,0.2-0.1,0.4-0.2,0.7c0,0.1,0,0.1-0.1,0.2c0,0,0,0.1-0.1,0.1
			c0,0.1,0,0.1,0,0.2c0,0,0,0.1-0.1,0.1c0,0.1,0,0.1,0,0.2c-0.1,0.2-0.1,0.4-0.2,0.6c0,0.1,0,0.1,0,0.1c-0.1,0.1-0.1,0.3-0.2,0.4
			c0,0.1,0,0.1-0.1,0.2c0,0.1-0.1,0.2-0.1,0.3c0,0.1,0,0.1-0.1,0.2c-0.1,0.3-0.2,0.6-0.3,0.9c-0.2,0.5-0.5,1-0.7,1.6l-0.4,0.8
			c-0.4,0.6-0.7,1.3-1.1,2l-0.2,0.4c0,0,0,0.1-0.1,0.1c0,0,0,0.1,0,0.1l-0.5,0.7l-0.4,0.6l-0.1,0.1l-0.7,0.9l-0.8,1l-0.1,0.1
			c0,0,0,0.1-0.1,0.1c-0.1,0.1-0.1,0.1-0.1,0.2c-0.3,0.3-0.5,0.6-0.8,0.9c-0.1,0.1-0.1,0.2-0.2,0.2l-0.6,0.6l0,0
			c-0.1,0.1-0.3,0.3-0.4,0.4c-0.1,0.1-0.2,0.2-0.3,0.3c-0.3,0.2-0.5,0.5-0.8,0.7c-0.1,0.1-0.2,0.1-0.2,0.2c-0.2,0.1-0.4,0.3-0.5,0.4
			c-0.2,0.1-0.3,0.2-0.5,0.4c-0.2,0.1-0.4,0.2-0.5,0.4c-0.1,0.1-0.1,0.1-0.2,0.2c-0.2,0.1-0.3,0.2-0.5,0.3c-0.1,0.1-0.2,0.2-0.4,0.2
			c-0.1,0.1-0.2,0.1-0.3,0.2c0,0-0.1,0-0.1,0.1c0,0-0.2,0.1-0.2,0.2c-0.2,0.1-0.3,0.2-0.5,0.3c-0.2,0.1-0.4,0.2-0.5,0.3l-0.6,0.3
			l-0.2,0.1c-0.4,0.2-0.8,0.4-1.2,0.7c-0.2,0.1-0.5,0.2-0.7,0.3c-0.3,0.1-0.7,0.3-1.3,0.6c-1,0.4-1.4,0.6-1.9,0.7
			c-0.6,0.2-1.2,0.3-1.8,0.4c0.7-0.3,1.9-0.7,3.3-1.3c2.5-1.1,6.5-3.1,10.1-7c1.1-1.2,2.1-2.5,3.1-3.9c0.9-1.3,1.6-2.6,2.3-4
			c0.9-1.8,1.6-3.8,2.1-5.8c0,0,0-0.1,0-0.1c0-0.1,0.1-0.2,0.1-0.3c0-0.1,0.1-0.2,0.1-0.3c0-0.1,0-0.2,0.1-0.3c0-0.1,0-0.1,0-0.1
			c0.1-0.6,0.2-1.1,0.3-1.7c0.1-0.4,0.1-0.8,0.2-1.3c0,0,0,0,0-0.1v0c0-0.2,0-0.3,0.1-0.5v0c0-0.4,0.1-0.8,0.1-1.2v-1.1
			c0-0.4,0-0.8,0.1-1.2c0,0,0,0,0-0.1c0,0,0,0.1,0,0.1c0-0.2,0-0.5,0-0.7c0-0.4-0.1-0.8-0.1-1.2c0-0.2-0.1-0.4-0.1-0.7v-0.2
			c0-0.2,0-0.3-0.1-0.5c-0.1-0.3-0.1-0.5-0.1-0.8c-0.2-0.8-0.4-1.7-0.6-2.5c-0.4-1.7-1-3.4-1.7-5.1c-0.9-2-2-3.9-3.3-5.7
			c-0.8-1.2-1.8-2.3-2.8-3.3c-2.6-2.7-5.8-5-9.2-6.6c-2.2-1-4.5-1.8-6.9-2.3c-0.4-0.1-1.2-0.2-2.2-0.3c-1-0.1-2.2-0.2-3.6-0.3
			c-1,0-2.5,0-4.5,0.2c-0.7,0.1-1.5,0.3-1.6,0.2c0-0.1,0.6-0.2,0.7-0.3c1.2-0.4,2.2-0.4,2.9-0.5c1.1-0.1,2.3-0.2,3.4-0.2
			c1.6,0,3.1,0.1,4.7,0.4c0.5,0.1,1,0.2,1.5,0.3c0.1,0,0.2,0.1,0.2,0.1c1.8,0.3,4,1.1,4,1.1s1.7,0.6,3.4,1.4c0.5,0.2,1,0.5,1,0.5
			c0.2,0.1,0.4,0.2,0.6,0.3c0.2,0.1,0.5,0.3,0.8,0.5l1,0.7c0.3,0.2,0.6,0.4,1,0.7c0.3,0.2,0.6,0.4,0.8,0.6c0,0,0.1,0.1,0.1,0.1
			c0.2,0.2,0.5,0.4,0.7,0.5l1.3,1.1l0.2,0.2c0.4,0.4,0.8,0.7,1.1,1.1l0.2,0.2c0.1,0.1,0.2,0.2,0.3,0.3l0.8,0.9c0,0,0,0.1,0.1,0.1
			c0.1,0.2,0.3,0.4,0.4,0.5l0.1,0.1c0.5,0.8,1.1,1.5,1.6,2.3c0.8,1.4,1.6,2.7,2.3,4.1c0.1,0.2,0.1,0.3,0.2,0.5l0.1,0.2l0.2,0.4
			c0,0.1,0.1,0.2,0.1,0.3c0,0,0,0.1,0.1,0.1l0.3,0.9c0.1,0.3,0.2,0.6,0.3,0.9c0.1,0.2,0.1,0.3,0.2,0.5c0,0.1,0,0.1,0,0.1
			c0.1,0.4,0.2,0.7,0.3,1.1c0.1,0.3,0.2,0.6,0.2,0.9c0,0,0,0,0,0.1c0,0.1,0,0.1,0,0.2c0,0.1,0,0.1,0.1,0.2c0,0.1,0.1,0.3,0.1,0.4
			c0,0.1,0,0.1,0,0.2c0.1,0.2,0.1,0.4,0.1,0.7c0,0.1,0,0.1,0,0.2c0,0.1,0,0.2,0.1,0.4c0,0.2,0,0.4,0,0.5c0,0.2,0.1,0.4,0.1,0.9
			c0,0.1,0,0.1,0,0.1L182,131.9z"/>
		<path class="st5" d="M172.3,106.3c-0.1-0.1-0.1-0.1-0.2-0.2l-0.1-0.1C172.1,106.2,172.2,106.3,172.3,106.3z"/>
		<path class="st5" d="M170.8,105.2L170.8,105.2"/>
		<path class="st5" d="M153.6,102.7c0.2,0,0.4,0,0.5,0C154,102.8,153.8,102.7,153.6,102.7z"/>
		<path class="st5" d="M119.8,155.1L119.8,155.1C119.8,155.1,119.8,155,119.8,155.1L119.8,155.1C119.8,155,119.8,155,119.8,155.1z"
			/>
		<path class="st5" d="M128.9,108c0.2-0.1,0.3-0.3,0.5-0.4C129.2,107.7,129.1,107.9,128.9,108z"/>
		<path class="st4" d="M170.3,127.7c-1,4.5-2,9.1-2.9,13.8c-0.4,2-0.7,3.7-0.7,3.7c-0.2,1.2-0.4,2.1-0.5,2.8
			c-0.2-0.3-0.4-0.6-0.6-0.9l-0.5-0.7c-0.3-0.4-0.5-0.9-0.8-1.3c-0.3-0.6-0.5-1.3-0.6-2c-0.2-1-0.2-1.5-0.5-3
			c-0.1-0.4-0.2-0.8-0.2-1c-0.2-0.4-0.3-0.8-0.5-1.2c-0.1-0.1-0.3-0.2-0.4-0.2c-0.2,0-0.3,0.2-0.4,0.3c-0.1,0.2-0.1,0.3-0.1,0.5
			c0,0.1,0,0.1,0,0.2v0.3c0,0.7,0.1,1.4,0.1,2.1c0,0.5-0.5,0.7-1,0.6c-0.2-0.1-0.4-0.3-0.5-0.4c-0.8-0.8-1.5-1.6-2.3-2.3
			c-0.4-0.3-0.8-0.6-1.2-0.9c-0.2-0.1-0.3-0.1-0.5,0c-0.1,0.1-0.2,0.5-0.1,0.6c0.3,0.4,0.6,0.8,1,1.2l1.1,1.1
			c0.1,0.1,0.1,0.2,0.1,0.2c0,0-0.1,0-0.2-0.1c-0.4-0.2-0.7-0.4-0.9-0.5c-0.6-0.4-1.2-0.8-1.9-1.1c-0.2-0.1-0.5-0.3-0.7-0.4
			c-0.1-0.1-0.2-0.1-0.4-0.1c0,0-0.2,0-0.3,0.1c-0.1,0.1,0,0.3,0.1,0.5c0,0.1,0.1,0.1,0.1,0.1c0.5,0.5,1,1,1.5,1.4
			c0.1,0.1,1.4,1,2.1,1.7c0.1,0.1,0.2,0.3,0.2,0.3c0,0-0.1,0.1-0.5-0.1c-0.1,0-0.3-0.1-0.4-0.1c0,0-1.9-0.8-3.3-1.3
			c-0.1,0-0.2,0-0.3,0c-0.1,0-0.2,0.1-0.3,0.2c-0.1,0.2,0.1,0.5,0.2,0.6c0.1,0.1,0.1,0.1,0.2,0.1c2.1,0.9,1.6,0.9,2.9,1.4
			c0.4,0.1,1,0.4,0.9,0.5c0,0.1-0.1,0.1-0.2,0.1c-0.1,0-0.1,0-0.2,0c-0.9,0-1.7-0.1-2.6,0c-0.3,0-0.6,0.1-0.6,0.5
			c0,0.1,0,0.2,0.1,0.3c0.3,0.5,4.1,0.3,6.6,1.7c0.2,0.1,0.3,0.2,0.4,0.2l1.6,1.6c-1.1-0.1-2.2-0.1-3.3-0.1c0,0-0.9,0.1-2,0.2
			c-0.3,0-0.6,0.1-1,0.2c-0.1,0-0.9,0.2-1.8,0.5c-1.9,0.6-3.4,1.6-4.5,2.4c-0.2,0.2-0.5,0.3-0.6,0.4c-0.1,0.1-0.3,0.2-0.4,0.3
			c-0.2,0.1-0.3,0.3-0.5,0.4c-0.2-0.1-0.3-0.2-0.5-0.3c-0.7-0.4-3.6-2-8.9-3.2c-1.9-0.4-3.9-0.7-5.8-0.8c0.7-0.8,1.5-1.5,2.5-2
			c0.4-0.2,0.8-0.4,1.3-0.6c0.6-0.2,1.1-0.4,1.7-0.5c0.5-0.1,2.3-0.2,2.9-0.3c0.2,0,0.4-0.1,0.4-0.4c0-0.3-0.1-0.5-0.4-0.6
			c-0.2,0-0.4,0-0.6,0h-2c-0.1,0-0.3,0-0.4,0h-0.1c0,0-0.1,0-0.1-0.1c0,0,0.2-0.1,0.2-0.1c0.7-0.4,1.1-0.5,1.2-0.6
			c0.4-0.2,0.5-0.3,1.1-0.5c0.5-0.3,0.8-0.4,0.9-0.5c0.3-0.1,0.5-0.3,0.7-0.5c0.1-0.1,0.3-0.3,0.2-0.5c-0.1-0.1-0.1-0.2-0.2-0.2
			c-0.1,0-0.3,0-0.4,0c-0.2,0-0.4,0.1-0.7,0.2c-1,0.4-2,0.8-3,1.2c-0.1,0-0.1,0-0.1,0.1c-0.3,0.1-0.4,0.1-0.4,0.1
			c-0.1-0.1,0.3-0.5,0.3-0.5c0.5-0.6,1.1-0.9,1.6-1.3c0.6-0.5,1.3-1.1,1.9-1.6c0.1-0.1,0.3-0.3,0.2-0.5c0-0.1-0.1-0.1-0.1-0.2
			c-0.1-0.1-0.2-0.1-0.4-0.1c-0.1,0-0.2,0-0.3,0.1c-0.2,0.1-0.3,0.1-0.5,0.2c-0.5,0.3-1,0.6-1.4,0.9c-0.4,0.3-0.9,0.6-1.3,0.9
			c0,0,0,0-0.1,0c0,0,0,0,0,0c0,0,0-0.1,0-0.1c0.2-0.3,0.5-0.5,0.6-0.7c0.2-0.3,0.4-0.5,0.7-0.7c0.2-0.2,0.3-0.4,0.5-0.7
			c0.2-0.3,0.2-0.4,0.2-0.5c-0.1-0.2-0.2-0.3-0.4-0.4c-0.2,0-0.4,0.1-0.5,0.2l-2.4,2.3l-0.2,0.2l-1.4,1c-0.1,0.1-0.3,0.2-0.5,0.1
			c-0.2-0.1-0.2-0.3-0.1-0.5c0.1-0.8,0.1-1.6,0.1-2.2c0-0.5-0.1-0.8-0.2-1.1c-0.1-0.2-0.5-0.3-0.8-0.2c-0.1,0-0.1,0.1-0.2,0.2
			c-0.2,0.2-0.3,0.5-0.3,0.7c-0.2,0.7-0.6,3.6-0.7,4.4c-0.2,0.9-0.5,1.8-0.9,2.6c-0.1,0.2-0.2,0.3-0.3,0.5l-0.4,0.5l-0.1,0.1
			c-0.2,0.3-0.4,0.5-0.7,0.9c0-0.1-0.1-0.3-0.1-0.5c-0.6-2.3-0.8-3.9-1.5-7.3c0,0-0.1-0.7-0.3-1.5c-0.1-0.5-0.2-1-0.3-1.5
			c-0.1-0.4-0.2-0.8-0.3-1.3c-0.5-2.5-1.1-5-1.6-7.5l1-0.2c1.5-0.2,3.4-0.3,6.4,0.1c3,0.4,5.9,1.1,8.7,2c0.4,0.2,0.9,0.4,1.5,0.7
			c1,0.4,1.6,0.7,1.9,0.8c0.8,0.4,2,0.8,3.5,1.4c1.5-0.8,2.6-1.4,2.9-1.6l0.3-0.2c0.1-0.1,0.2-0.1,0.5-0.2c1.6-0.7,3.2-1.3,4.9-1.7
			c2.3-0.6,4.6-1.1,7-1.3l1.8-0.2C167.3,127.7,168.9,127.6,170.3,127.7z"/>
		<path class="st4" d="M178.8,129.8c-0.4-2.5-1-4.9-2-7.2c-0.4-0.7-0.7-1.5-1.1-2.2c-0.6-1.2-2.2-4-5.1-7c-1.6-1.6-4.8-4.8-9.8-6.7
			c-4.7-1.8-8.7-1.7-8.7-1.6c0,0.1,3.2,0.4,7.5,2c0.5,0.2,1,0.4,1.4,0.6c1.6,0.7,3.1,1.6,4.5,2.6c1.5,1,2.8,2.2,4,3.5
			c0.3,0.3,0.5,0.6,0.7,0.8c0.4,0.5,0.9,1,1.3,1.5c0.8,1.2,1.6,2.4,2.3,3.6c1.7,3.1,2.9,6.4,3.3,9.9c0.2,1.2,0.3,2.4,0.4,3.7
			c0,0.8,0,1.6-0.1,2.4c-0.2,1.4-0.4,2.7-0.6,4.1c-0.1,0.5-0.2,1-0.4,1.4c-0.1,0.5-0.3,1.1-0.4,1.6c-0.1,0.2-0.2,0.4-0.3,0.7
			c0,0.1,0,0.1-0.1,0.2c0,0.1-0.1,0.2-0.1,0.3c0,0,0,0,0,0.1c-0.1,0.2-0.2,0.5-0.3,0.8c0,0,0,0.1,0,0.1c-0.1,0.2-0.2,0.4-0.3,0.7
			c0,0,0,0.1,0,0.1c-0.3,0.5-0.5,1-0.8,1.6c0,0,0,0.1,0,0.1c-0.3,0.5-0.6,1-0.9,1.5c-0.2,0.3-0.4,0.6-0.5,0.9l-0.5,0.7
			c-0.4,0.5-0.7,1.1-1.1,1.6c-2.3,2.9-5.1,5.2-8.4,7c-1.3,0.8-2.7,1.4-4.1,1.9c0,0-3.3,1.1-8.3,1.4c-0.5,0-1.7,0.1-2.5,0.1h-0.9
			c-0.3,0-0.5,0-0.9,0c-0.2,0-0.4,0-0.5,0c0.3,0.1,1,0.2,1.7,0.3c0.3,0,0.5,0.1,0.6,0.1c0.2,0,0.5,0,0.7,0.1c0.5,0.1,1.3,0.1,2,0.1
			c1.8,0,4-0.3,4.2-0.4c0.3,0,1.1-0.2,2.2-0.4c0.7-0.2,2.2-0.5,3.7-1c1.8-0.7,3-1.4,4.3-2.1c3.5-2.1,5.6-4.2,6.1-4.7
			c0.7-0.7,1.3-1.4,2-2.2c2.4-2.9,4.2-6.3,5.2-10c0.3-1.2,0.6-2.4,0.8-3.6c0.2-1,0.3-2,0.4-2.9C179.3,133,179.1,131.2,178.8,129.8z"
			/>
		<path class="st4" d="M175,141.5c-0.8,2.7-1.9,4.8-2.8,6.3c-1.1,1.9-2.3,3.3-3.3,4.4l-0.6,0.6c-0.5,0.5-1.1,1.1-1.8,1.6
			c-0.7,0.6-1.4,1.1-2.1,1.6c-0.1,0.1-0.2,0.1-0.3,0.2c-0.4,0.2-0.8,0.5-1.2,0.7c-0.3,0.2-0.7,0.4-1,0.5c-0.1,0.1-0.3,0.1-0.4,0.2
			c-0.1,0-0.2,0.1-0.2,0.1c-0.2,0.1-0.3,0.2-0.5,0.2c-0.1,0-0.2,0.1-0.5,0.2c-0.2,0.1-0.5,0.2-0.8,0.3c-0.2,0.1-0.3,0.1-0.5,0.2
			c-0.2,0.1-0.4,0.1-0.6,0.2c-0.3,0.1-0.6,0.2-0.8,0.3c-0.7,0.2-1.3,0.4-1.7,0.5c-0.1,0-0.2,0.1-0.3,0.1c-0.6,0.1-1.2,0.3-1.9,0.4
			c-3.2,0.5-6.1,0.4-8.5,0c-0.3-0.1-0.9-0.1-1.5-0.3c-1.7-0.4-3.1-0.9-4.1-1.3l-1.5-0.7c-0.3-0.2-0.6-0.3-1-0.5
			c-0.4-0.2-0.8-0.5-1.2-0.7c-0.1-0.1-0.2-0.1-0.3-0.2c-0.2-0.1-0.5-0.3-0.7-0.4c-0.6-0.4-1.1-0.8-1.7-1.2l-0.4-0.3
			c-0.4-0.3-0.6-0.6-0.8-0.7c-2-1.8-3.1-3.2-3.5-3.6c0,0,0,0-0.1-0.1c-0.3-0.3-0.9-1.1-1.7-2.5c-0.7-1.2-1-1.9-1.2-2.3
			c0,0-0.2-0.6-0.2-0.6c0,0,0.1,0.1,0.3,0.5c0.1,0.2,0.2,0.4,0.3,0.5c0,0,0.2,0.4,0.7,1.1c0.8,1.3,2,2.8,2.4,3.3
			c0.3,0.4,0.5,0.6,0.7,0.8l0.1,0.1l0.3,0.3c0.4,0.4,0.7,0.7,1,1c0.1,0.1,0.4,0.3,0.6,0.6c0.3,0.3,0.6,0.5,0.8,0.7l1.8,1.3
			c0.3,0.2,0.5,0.4,0.8,0.5c0,0,0.1,0,0.1,0.1c0,0,0,0,0.1,0c0,0,0.1,0,0.1,0c0,0,1.1,0.7,1.6,0.9l0.5,0.2c0,0,0,0,0.1,0
			c0.1,0,0.2,0.1,0.3,0.1c0.5,0.2,1,0.4,1.5,0.6l0.5,0.2c0.5,0.2,1,0.4,1.6,0.5c3,0.8,6.1,1.4,9.2,1c2.2-0.2,4.3-0.6,6.4-1.3
			c3-1,5.8-2.5,8.3-4.5c0.4-0.3,1.5-1.3,1.7-1.5c1.1-1.1,2.2-2.3,3.1-3.6c0.6-0.8,1-1.5,1.2-1.8c0.8-1.4,1.5-2.9,2.1-4.5
			c0.7-2,1.2-4,1.4-6.1c0.2-1.6,0.4-3.3,0.1-4.9c-0.1-0.5-0.1-1-0.2-1.5c0-0.1,0-0.2,0-0.3c-0.1-0.2-0.1-0.5-0.1-0.8v-0.1
			c-0.2-0.9-0.4-1.8-0.7-2.7c-0.1-0.2-0.1-0.3-0.1-0.5l-0.3-1v-0.1c-0.1-0.1-0.1-0.2-0.1-0.3c-0.3-0.7-0.5-1.3-0.8-2
			c0-0.1-0.1-0.1-0.1-0.1l-0.2-0.5c-0.1-0.1-0.1-0.2-0.2-0.4c0,0,0,0,0-0.1c-0.2-0.3-0.4-0.7-0.5-1c0,0,0-0.1,0-0.1
			c-0.1-0.2-0.2-0.3-0.3-0.5c0,0,0-0.1-0.1-0.1c-0.1-0.1-0.2-0.3-0.4-0.6c-0.3-0.4-0.5-0.8-0.8-1.3c0.3,0.3,0.6,0.6,0.9,1.1
			c0,0,0.4,0.6,0.9,1.2c1.9,2.7,3,6.2,3,6.2c0.6,1.9,1,3.9,1.2,5.9C176.3,135,175.9,138.3,175,141.5z"/>
		<path class="st4" d="M147.7,122.4l0,2.7h-2.5v-2.7H147.7z"/>
		<path class="st5" d="M118.3,128.7L118.3,128.7c-0.1,0.6-0.1,1.1-0.1,1.6C118.2,129.8,118.2,129.2,118.3,128.7z"/>
		<path class="st5" d="M118.4,128.6L118.4,128.6c0,0,0,0.1-0.1,0.1C118.3,128.7,118.3,128.6,118.4,128.6z"/>
		<path class="st5" d="M118.4,134v0.3c-0.1-0.9-0.1-2.1-0.1-3C118.2,132.1,118.3,133.1,118.4,134z"/>
		<path class="st4" d="M148.7,129.6c0,0-1.3,0-1.9,0c0,0,0-0.1,0-0.1c0-0.5,0-1.1,0-1.6h1.9V129.6z"/>
		<path class="st5" d="M119.9,155.3C119.9,155.3,119.9,155.2,119.9,155.3L119.9,155.3C119.9,155.2,119.9,155.2,119.9,155.3z"/>
		<path class="st5" d="M123.3,158.7L123.3,158.7c-0.3-0.3-0.5-0.5-0.8-0.8c-0.3-0.3-0.7-0.5-0.9-0.9c0.2,0.3,0.6,0.5,0.9,0.8
			C122.8,158.2,123.1,158.4,123.3,158.7z"/>
		<path class="st5" d="M180.5,130.2L180.5,130.2L180.5,130.2z M180.6,136.5L180.6,136.5L180.6,136.5L180.6,136.5z M180.7,133
			C180.7,133,180.6,133.1,180.7,133l0,1.2C180.7,133.8,180.7,133.5,180.7,133C180.7,133,180.7,133,180.7,133z"/>
		<path class="st5" d="M180.6,135.3c0,0.4-0.1,0.8-0.1,1.2v0l0,0v0c0-0.8,0.1-1.6,0.1-2.3C180.6,134.6,180.6,134.9,180.6,135.3z"/>
		<path class="st5" d="M180.7,133.1c0,0.4,0,0.8-0.1,1.2L180.7,133.1C180.6,133.1,180.7,133,180.7,133.1
			C180.7,133,180.7,133,180.7,133.1z"/>
		<path class="st5" d="M118.3,128.7L118.3,128.7c-0.1,0.5-0.1,1.1-0.1,1.6C118.2,129.8,118.2,129.3,118.3,128.7z M118.3,128.7
			L118.3,128.7L118.3,128.7l0.1-0.1C118.3,128.6,118.3,128.7,118.3,128.7z M118.2,131.3c0,0.8,0.1,2,0.1,3V134
			C118.3,133.1,118.2,132.1,118.2,131.3z M120.5,144.5c0.2,0.5,0.3,0.9,0.5,1.2L120.5,144.5z"/>
		<path class="st5" d="M118.4,134.3v0.1c0,0.1,0,0.3,0,0.4C118.4,134.7,118.4,134.5,118.4,134.3z M119.9,155.2L119.9,155.2
			C119.9,155.2,119.9,155.3,119.9,155.2C119.9,155.2,119.9,155.2,119.9,155.2L119.9,155.2z M122.6,157.9c-0.3-0.3-0.7-0.5-0.9-0.8
			C121.9,157.4,122.3,157.6,122.6,157.9c0.2,0.3,0.5,0.6,0.8,0.8l0,0C123.1,158.4,122.8,158.2,122.6,157.9L122.6,157.9z"/>
		<path class="st5" d="M180.2,114.7c0,0,0-0.1-0.1-0.1c-0.1-0.2-0.2-0.3-0.3-0.5c0-0.1-0.1-0.2-0.2-0.3l0,0c-2.1-3.2-4-5.6-5-6.7
			c-0.9-1-1.7-1.7-1.7-1.7s-0.7-0.6-1.4-1.1c-2.1-1.5-4.2-2.9-6.5-4.1c-1.9-1-3.9-1.8-5.9-2.5c-0.7-0.2-2.3-0.7-4.4-1.1
			c-1.1-0.2-2.2-0.4-3.3-0.5c-1.9-0.1-3.7-0.2-5.6-0.2c-1,0-1.9,0.2-2.8,0.3c-0.1,0-0.3,0-0.4,0c-0.7,0.1-1.4,0.2-2,0.3
			c-0.8,0.2-1.7,0.4-2.5,0.7c-1.1,0.4-2.2,0.7-3.3,1.1c-1.2,0.5-2.4,1-3.6,1.6c-1.8,1-3.5,2-5.1,3.2c-1.3,1-2.6,2.1-3.7,3.2
			c-1,1-1.9,2.1-2.8,3.2c-1,1.3-1.9,2.5-2.7,3.8c-0.7,1.1-1.3,2.2-1.8,3.4c-0.5,1.1-1,2.3-1.4,3.5c-0.3,0.7-0.5,1.4-0.7,2.1
			c-0.3,1.1-0.5,2.3-0.8,3.5c0,0.1-0.1,0.3-0.1,0.6c-0.1,0.6-0.2,1.4-0.3,2.6c-0.2,1.6-0.2,3.3-0.2,4.9c0,0.1,0,0.3,0,0.7
			c0,0,0.1,2.2,0.4,4.1c0,0,0,0.1,0,0.1c0,0.1,0,0.3,0.1,0.4c0,0.4,0.1,0.7,0.2,1.1c0,0.1,0,0.2,0.1,0.2c0.1,0.4,0.2,0.7,0.2,1.1
			l0.5,1.7c0,0,0,0,0,0.1c0.1,0.1,0.1,0.3,0.2,0.4c0.2,0.6,0.4,1.2,0.7,1.8c0,0.1,0,0.1,0.1,0.2c0.1,0.3,0.3,0.7,0.4,1
			c0,0,0,0,0,0.1c0.1,0.1,0.1,0.2,0.1,0.3c0,0,0,0.1,0,0.1l0.5,1.1l0.1,0.2c0.2,0.4,0.4,0.8,0.6,1.1l0.2,0.3l0,0
			c0.3,0.4,0.5,0.9,0.8,1.3l0.1,0.1c0.1,0.1,0.1,0.2,0.2,0.3l0,0l0.1,0.1c0,0,0,0,0,0.1c0.5,0.7,1,1.5,1.6,2.2l0.4,0.6
			c0.1,0.1,0.2,0.3,0.4,0.4c0,0,0.1,0.1,0.1,0.1c0.2,0.2,0.3,0.3,0.5,0.5l0,0c0.3,0.4,0.6,0.7,0.8,1l0.1,0.1
			c0.1,0.1,0.2,0.3,0.4,0.4l0.1,0.1c0.1,0.1,0.2,0.2,0.3,0.3l0.2,0.3l1.1,1.1c0.1,0.1,0.2,0.1,0.2,0.2c0.4,0.3,0.6,0.5,0.7,0.6
			l0.1,0.1c0.1,0.1,0.2,0.1,0.2,0.2c0.1,0.1,0.1,0.1,0.2,0.1l0.1,0.1c0.4,0.3,0.7,0.6,1.1,0.9l0,0l0.7,0.5l0,0
			c0.2,0.1,0.3,0.2,0.5,0.4c0,0,0.1,0.1,0.2,0.1c0.4,0.2,0.7,0.5,1,0.7l0,0c0,0,0.1,0,0.1,0.1c0,0,0,0,0.1,0c0,0,0.1,0,0.1,0.1l0,0
			c0.4,0.3,0.8,0.5,1.3,0.8l0,0c0.1,0.1,0.3,0.2,0.4,0.2l0.2,0.2c0.3,0.2,0.6,0.3,0.9,0.5c0.3,0.2,0.7,0.4,1,0.5
			c0.2,0.1,0.4,0.2,0.7,0.3l0,0l1.1,0.5l0,0l1.2,0.5l0.2,0.1c0.2,0.1,0.4,0.2,0.7,0.2c0.1,0,0.1,0.1,0.2,0.1
			c0.5,0.1,0.9,0.3,1.4,0.4c0.3,0.1,0.6,0.2,1,0.3l0.3,0.1c0.1,0,0.1,0,0.2,0s0.1,0,0.1,0.1c0.5,0.1,1.1,0.2,1.7,0.4l1.4,0.2
			c0.1,0,0.1,0,0.2,0c0.3,0.1,0.6,0.1,0.9,0.1l0.7,0.1c0.3,0,0.7,0.1,1,0.1h0.2l2.7,0.2c0.7,0,1.4,0,2.1,0c0.6-0.1,1.2-0.1,1.8-0.1
			c0.1,0,0.2,0,0.3,0c0.2,0,0.3,0,0.5-0.1c0.1,0,0.2,0,0.2,0c1-0.2,1.9-0.3,2.8-0.5c0.3-0.1,0.6-0.1,0.9-0.2l1-0.2
			c0.4-0.1,0.7-0.2,1.1-0.3c0.2,0,0.4-0.1,0.7-0.2c0.5-0.2,1-0.4,1.5-0.5c0.1,0,0.1,0,0.2-0.1c0.4-0.2,0.8-0.3,1.2-0.5
			c0.1,0,0.2-0.1,0.2-0.1c1.3-0.5,2.5-1.1,3.7-1.8c0.5-0.3,1.1-0.6,1.8-1.1l0,0c0.1,0,0.1-0.1,0.2-0.1c0.4-0.2,0.7-0.5,1.1-0.7
			c0.4-0.3,1-0.8,1-0.8c0,0-0.1,0-0.5,0.2c-0.3,0.2-3.2,1.8-4,2.2c-0.1,0-0.4,0.1-0.5,0.2c-0.4,0.1-1,0.4-1.8,0.7l-0.2,0.1l-0.2,0.1
			c-1.4,0.4-1.8,0.5-1.8,0.5c-2.1,0.5-3.9,0.9-4.6,1c-0.2,0-0.4,0.1-0.6,0.1c-0.4,0.1-0.8,0.1-1.1,0.1c-0.2,0-0.3,0-0.5,0l-1.2,0.1
			h-1.5l-1.2-0.1c-0.2,0-0.4-0.1-0.5-0.1l-2.4-0.2l-0.5-0.1l-0.6-0.1c-0.1,0-2-0.4-2.8-0.6c-0.1,0-0.2-0.1-0.3-0.1
			c-0.3-0.1-1-0.3-1.1-0.3c-0.1-0.1-1.7-0.6-2.1-0.7l-0.2-0.1c-0.1-0.1-0.2-0.1-0.3-0.2c-0.1,0-0.7-0.3-0.8-0.3l-0.3-0.2l0,0
			l-0.3-0.2l0,0c-0.4-0.2-0.9-0.4-1.3-0.7l-0.6-0.3c-0.3-0.2-0.6-0.3-0.9-0.5l-0.6-0.3c-0.2-0.1-0.4-0.2-0.4-0.2
			c-0.3-0.1-0.8-0.5-2.1-1.3c-0.2-0.2-0.4-0.3-0.6-0.5l0,0l-0.1-0.1l-0.1-0.1l0,0c-0.1,0-0.2-0.1-0.2-0.2c-0.5-0.5-1.1-1-1.6-1.4
			l0,0l-0.2-0.2l-0.2-0.2c-0.5-0.5-1.1-1-1.6-1.5c-0.6-0.7-1.2-1.4-1.9-2.1c-0.1-0.1-0.1-0.2-0.1-0.2c-0.7-0.9-1.3-1.8-1.9-2.7
			c-0.1-0.1-0.1-0.2-0.2-0.4c0,0,0,0,0-0.1c0-0.1-0.1-0.2-0.1-0.2l0,0l-0.3-0.3l-0.1-0.2c-0.5-0.9-0.9-1.7-1.4-2.6l0,0
			c0,0,0-0.1-0.1-0.1c0,0,0-0.1,0-0.1c-0.1-0.1-0.1-0.3-0.2-0.4c0-0.1-0.1-0.1-0.1-0.2l-0.1-0.2c-0.1-0.1-0.1-0.2-0.1-0.3
			c-0.1-0.4-0.3-0.8-0.5-1.2v0c-0.3-0.7-0.6-1.4-0.8-2.2c-0.2-0.8-0.5-2.2-0.6-2.5c0,0,0-0.1,0-0.1c0-0.1,0-0.2-0.1-0.3l0,0
			c-0.1-0.3-0.1-0.5-0.1-0.8c0-0.1,0-0.1,0-0.2c-0.1-0.5-0.1-1-0.2-1.5c0-0.1,0-0.2,0-0.3c0,0-0.1-1.2-0.2-2.5
			c0-1.5,0.1-2.5,0.1-3.2c0-0.7,0-1,0.1-1.1c0,0,0-0.1,0.1-0.3c0-0.1,0-0.2,0-0.3c0.1-0.5,0.1-1,0.2-1.6c0-0.2,0-0.4,0.1-0.5
			c0-0.1,0.1-0.3,0.1-0.4c0-0.1,0-0.1,0-0.2c0-0.2,0.1-0.6,0.4-1.7c0.1-0.6,0.3-1.1,0.4-1.4c0.1-0.4,0.2-0.6,0.5-1.6
			c0.2-0.5,0.4-1,0.4-1.2v0l0,0l0.1-0.2c0.1-0.2,0.2-0.4,0.2-0.6c0.2-0.4,0.4-0.8,0.5-1.2c0.1-0.3,0.3-0.6,0.4-0.9l0.2-0.3
			c0.2-0.3,0.4-0.7,0.5-1c0-0.1,0.1-0.2,0.2-0.3c0,0,0.1-0.1,0.1-0.1c0.3-0.5,0.6-0.9,0.8-1.4c0,0,0-0.1,0.1-0.1c0,0,0-0.1,0.1-0.1
			c0,0,0.1-0.1,0.1-0.1l0.6-0.8c0.3-0.3,0.5-0.7,0.7-1c0.1-0.1,0.2-0.2,0.2-0.3c0.3-0.4,0.6-0.7,0.9-1c0,0,0.1,0,0.1-0.1h0
			c0,0,0-0.1,0.1-0.1l0.2-0.2l0.9-1l0,0l0.1-0.1l0,0c0.1-0.1,0.2-0.2,0.4-0.4c0.1-0.1,0.2-0.2,0.3-0.3l0.9-0.8
			c0.1,0,0.1-0.1,0.1-0.2l0.7-0.7c0.1-0.1,0.3-0.2,0.4-0.3c0,0,0.1-0.1,0.1-0.1l0.1-0.1l0.4-0.3c0.1-0.1,0.3-0.3,0.6-0.4
			c0,0,0.1-0.1,0.1-0.1c0.8-0.6,2.2-1.6,2.7-1.9c0.1,0,0.2-0.1,0.2-0.1l0.4-0.2c0.2-0.1,0.4-0.2,0.6-0.3c0,0,0.1-0.1,0.1-0.1
			l0.2-0.1v0h0.1c1.8-1,3.7-1.8,5.7-2.4c1.5-0.5,2.9-0.8,3.2-0.8c0.6-0.1,1.1-0.2,1.7-0.3c0.9-0.1,1.6-0.2,2.1-0.2
			c0.6-0.1,1.4-0.1,2.3-0.1h1.2c0.5,0,0.9,0.1,1.4,0.1h0.3c0,0,0.8,0,1.7,0.1c1.4,0.2,2.9,0.5,4.3,0.8c1.4,0.4,2.8,0.8,4.2,1.4
			c1.1,0.5,2.3,1,3.3,1.6c1.2,0.7,2.4,1.4,3.5,2.2l0,0c0.1,0.1,0.2,0.1,0.2,0.2c5.1,3.8,8.7,9.3,8.8,9.3l0,0c0,0,0.1,0,0.1,0.1
			C180.4,115,180.3,114.8,180.2,114.7z"/>
		<path class="st5" d="M119.9,155.3C119.9,155.3,119.9,155.3,119.9,155.3L119.9,155.3C119.9,155.2,119.9,155.2,119.9,155.3
			L119.9,155.3z"/>
		<path class="st5" d="M119.8,155.1C119.8,155.1,119.8,155.1,119.8,155.1C119.8,155.1,119.8,155.1,119.8,155.1L119.8,155.1
			L119.8,155.1z"/>
		<path class="st5" d="M118.3,128.7c0,0.4-0.1,0.8-0.1,1.2C118.2,129.5,118.2,129.2,118.3,128.7L118.3,128.7L118.3,128.7z"/>
		<path class="st5" d="M118.4,128.6L118.4,128.6L118.4,128.6C118.3,128.7,118.3,128.6,118.4,128.6z"/>
		<path class="st5" d="M118.4,134.9c0-0.1,0-0.3,0-0.4v-0.1C118.4,134.5,118.4,134.7,118.4,134.9L118.4,134.9z"/>
		<path class="st5" d="M119.5,154.9L119.5,154.9c-0.1-0.1-0.1-0.1-0.1-0.1C119.4,154.8,119.4,154.8,119.5,154.9z"/>
		<path class="st5" d="M119.8,155.1L119.8,155.1C119.8,155.1,119.8,155,119.8,155.1L119.8,155.1C119.8,155,119.8,155,119.8,155.1z"
			/>
		<path class="st5" d="M180.5,130.4c0-0.1,0-0.1,0-0.2v0l0,0l0,0V130.4z"/>
		<path class="st5" d="M130.5,146.3c0.1-0.1,0.1-0.3,0.2-0.4C130.6,146,130.5,146.1,130.5,146.3z"/>
		<path class="st5" d="M139.6,116.1L139.6,116.1c-0.1-0.1,0-0.1,0-0.1C139.6,116,139.6,116.1,139.6,116.1z"/>
		<path class="st5" d="M157.7,145.8c-0.1,0-0.1,0-0.2-0.1C157.6,145.8,157.6,145.8,157.7,145.8z"/>
		<path class="st5" d="M139.6,114.7C139.6,114.7,139.6,114.7,139.6,114.7L139.6,114.7L139.6,114.7z"/>
		<path class="st5" d="M157,129.2C156.9,129.2,156.9,129.3,157,129.2C156.9,129.3,156.9,129.2,157,129.2z"/>
		<path class="st5" d="M118.5,127.7c0,0.2-0.1,0.5-0.1,0.7C118.4,128.2,118.4,128,118.5,127.7z"/>
		<path class="st5" d="M131,159.2l0.2,0.2C131.1,159.3,131.1,159.3,131,159.2z"/>
		<path class="st5" d="M131.3,159.5L131.3,159.5C131.4,159.5,131.3,159.5,131.3,159.5z"/>
		<path class="st5" d="M119.8,155.1L119.8,155.1C119.8,155.1,119.8,155,119.8,155.1L119.8,155.1C119.8,155,119.8,155,119.8,155.1z"
			/>
		<path class="st5" d="M131.2,159.4L131.2,159.4L131.2,159.4z"/>
		<path class="st5" d="M130.7,152.4l-0.6-0.7C130.3,152,130.4,152.2,130.7,152.4z"/>
		<path class="st5" d="M129.2,150.7L129.2,150.7C129.1,150.6,129.2,150.7,129.2,150.7z"/>
		<path class="st5" d="M130,151.7L130,151.7L130,151.7z"/>
		<path class="st5" d="M130.1,151.8L130.1,151.8L130.1,151.8z"/>
		<path class="st5" d="M152.4,119.7v2.7l-2.5,0l0,0v-2.6C150.1,119.7,152.4,119.7,152.4,119.7z"/>
		<path class="st5" d="M118.4,134.9c0-0.1,0-0.3,0-0.4v-0.1C118.4,134.5,118.4,134.7,118.4,134.9z"/>
		<path class="st5" d="M128.9,108c0.2-0.1,0.3-0.3,0.5-0.4C129.2,107.7,129.1,107.9,128.9,108z"/>
		<rect x="155.4" y="122.2" class="st4" width="2.1" height="2.3"/>
		<rect x="153.2" y="116.4" class="st4" width="3.3" height="3.3"/>
		<rect x="141.7" y="122.5" class="st5" width="1.6" height="1.6"/>
		<rect x="135.4" y="123" class="st5" width="2.6" height="2.6"/>
		<rect x="139.5" y="118.6" class="st5" width="2.2" height="2.3"/>
		<path class="st4" d="M139.6,116.1L139.6,116.1l-3.2,0.1v-3.4h0.4c0.9,0,1.8,0,2.7,0c0,0.2,0,0.4,0,0.5v1.3h0c0,0,0,0,0,0.1v1.2
			C139.6,116,139.6,116,139.6,116.1L139.6,116.1L139.6,116.1z"/>
		<path class="st5" d="M139.6,112.8v3.3h-0.1c0-0.1,0-0.1,0-0.1v-1.2c0,0,0,0,0-0.1h0v-1.3C139.6,113.2,139.6,113,139.6,112.8
			c-0.9,0-1.8,0-2.7,0L139.6,112.8L139.6,112.8z"/>
		<path class="st5" d="M146.5,110.4v2.7h-2.7v-2.7h2.3C146.3,110.4,146.4,110.5,146.5,110.4z"/>
		<path class="st4" d="M164.1,121.9v3.1h-3.1v-3L164.1,121.9L164.1,121.9z"/>
		<rect x="150.5" y="108.4" class="st4" width="2.2" height="2.2"/>
		<path class="st5" d="M145.9,115.9v2.4h2.4v-2.4H145.9z"/>
		<rect x="141" y="126.1" class="st5" width="3.2" height="3.2"/>
		<rect x="149.5" y="124.8" class="st4" width="2.1" height="2.1"/>
		<path class="st5" d="M170.3,127.7c-1,4.5-2,9.1-2.9,13.8c-0.4,2-0.7,3.7-0.7,3.7c-0.2,1.2-0.4,2.1-0.5,2.8
			c-0.2-0.3-0.4-0.6-0.6-0.9l-0.5-0.7c-0.3-0.4-0.5-0.9-0.8-1.3c-0.3-0.6-0.5-1.3-0.6-2c-0.2-1-0.2-1.5-0.5-3
			c-0.1-0.4-0.2-0.8-0.2-1c-0.2-0.4-0.3-0.8-0.5-1.2c-0.1-0.1-0.3-0.2-0.4-0.2c-0.2,0-0.3,0.2-0.4,0.3c-0.1,0.2-0.1,0.3-0.1,0.5
			c0,0.1,0,0.1,0,0.2v0.3c0,0.7,0.1,1.4,0.1,2.1c0,0.5-0.5,0.7-1,0.6c-0.2-0.1-0.4-0.3-0.5-0.4c-0.8-0.8-1.5-1.6-2.3-2.3
			c-0.4-0.3-0.8-0.6-1.2-0.9c-0.2-0.1-0.3-0.1-0.5,0c-0.1,0.1-0.2,0.5-0.1,0.6c0.3,0.4,0.6,0.8,1,1.2l1.1,1.1
			c0.1,0.1,0.1,0.2,0.1,0.2s-0.1,0-0.2-0.1c-0.4-0.2-0.7-0.4-0.9-0.5c-0.6-0.4-1.2-0.8-1.9-1.1c-0.2-0.1-0.5-0.3-0.7-0.4
			c-0.1-0.1-0.2-0.1-0.4-0.1c0,0-0.2,0-0.3,0.1s0,0.3,0.1,0.5c0,0.1,0.1,0.1,0.1,0.1c0.5,0.5,1,1,1.5,1.4c0.1,0.1,1.4,1,2.1,1.7
			c0.1,0.1,0.2,0.3,0.2,0.3c0,0.1-0.1,0.1-0.5-0.1c-0.1,0-0.3-0.1-0.4-0.1c0,0-1.9-0.8-3.3-1.3c-0.1,0-0.2,0-0.3,0
			c-0.1,0-0.2,0.1-0.3,0.2c-0.1,0.2,0.1,0.5,0.2,0.6c0.1,0.1,0.1,0.1,0.2,0.1c2.1,0.9,1.6,0.9,2.9,1.4c0.4,0.1,1,0.4,0.9,0.5
			c0,0.1-0.1,0.1-0.2,0.1c-0.1,0-0.1,0-0.2,0c-0.9,0-1.7-0.1-2.6,0c-0.3,0-0.6,0.1-0.6,0.5c0,0.1,0,0.2,0.1,0.3
			c0.3,0.5,4.1,0.3,6.6,1.7c0.2,0.1,0.3,0.2,0.4,0.2l1.6,1.6c-1.1-0.1-2.2-0.1-3.3-0.1c0,0-0.9,0.1-2,0.2c-0.3,0-0.6,0.1-1,0.2
			c-0.1,0-0.9,0.2-1.8,0.5c-1.9,0.6-3.4,1.6-4.5,2.4c-0.2,0.2-0.5,0.3-0.6,0.4s-0.3,0.2-0.4,0.3c-0.1,0.1-0.3,0.3-0.5,0.4v-20.1l0,0
			c1.5-0.8,2.6-1.4,2.9-1.6l0.3-0.2c0.1-0.1,0.2-0.1,0.5-0.2c1.6-0.7,3.2-1.3,4.8-1.7c2.3-0.6,4.6-1.1,7-1.3l1.8-0.2
			C167.3,127.7,168.9,127.6,170.3,127.7z"/>
	</g>
</g>
</svg>
